<?xml version="1.0" encoding="iso-8859-1"?>
<!-- Generator: Adobe Illustrator 19.0.0, SVG Export Plug-In . SVG Version: 6.00 Build 0)  -->
<svg version="1.1" id="Capa_1" xmlns="http://www.w3.org/2000/svg" xmlns:xlink="http://www.w3.org/1999/xlink" x="0px" y="0px"
	 viewBox="0 0 511.99 511.99" style="enable-background:new 0 0 511.99 511.99;" xml:space="preserve">
<g>
	<ellipse style="fill:#1138F7;" cx="255.992" cy="255.999" rx="236.278" ry="236.278"/>
	<path style="fill:#1138F7;" d="M255.995,511.979c-65.587,0-131.174-24.957-181.108-74.872c-99.849-99.849-99.849-262.348,0-362.217
		l0,0c99.849-99.829,262.368-99.849,362.217,0c99.849,99.869,99.849,262.348,0,362.217
		C387.169,487.022,321.562,511.979,255.995,511.979z M102.939,102.942c-84.374,84.394-84.374,221.719,0,306.113
		c84.414,84.374,221.738,84.394,306.113,0s84.374-221.719,0-306.113C324.637,18.568,187.333,18.568,102.939,102.942L102.939,102.942
		z"/>
</g>
<g>
	<path style="fill:#FFFFFF;" d="M187.115,344.678c-5.079,0-10.157-1.944-14.026-5.813c-7.757-7.757-7.757-20.295,0-28.052
		l140.26-140.26c7.757-7.757,20.295-7.757,28.052,0c7.757,7.757,7.757,20.295,0,28.052l-140.26,140.26
		C197.252,342.734,192.193,344.678,187.115,344.678z"/>
	<path style="fill:#FFFFFF;" d="M327.355,344.678c-5.079,0-10.157-1.944-14.026-5.813l-140.26-140.26
		c-7.757-7.757-7.757-20.295,0-28.052s20.295-7.757,28.052,0l140.26,140.26c7.757,7.757,7.757,20.295,0,28.052
		C337.513,342.734,332.434,344.678,327.355,344.678z"/>
</g>
<g>
</g>
<g>
</g>
<g>
</g>
<g>
</g>
<g>
</g>
<g>
</g>
<g>
</g>
<g>
</g>
<g>
</g>
<g>
</g>
<g>
</g>
<g>
</g>
<g>
</g>
<g>
</g>
<g>
</g>
</svg>
